{
  "accessors": [
    {
      "bufferView": 2,
      "componentType": 5126,
      "count": 65532,
      "max": [
        13.730264663696289,
        9.76595401763916,
        14.06750774383545
      ],
      "min": [
        0.03560686111450195,
        0.03729391098022461,
        0.0003609657287597656
      ],
      "type": "VEC3"
    },
    {
      "bufferView": 2,
      "byteOffset": 786384,
      "componentType": 5126,
      "count": 65532,
      "max": [
        0.9998583793640137,
        0.9999982714653015,
        0.9999997615814209
      ],
      "min": [
        -0.9999845027923584,
        -0.9999966025352478,
        -0.9998846650123596
      ],
      "type": "VEC3"
    },
    {
      "bufferView": 1,
      "componentType": 5126,
      "count": 65532,
      "max": [
        0.9691290259361267,
        0.9933599829673767
      ],
      "min": [
        0.004819999914616346,
        0.0023219999857246876
      ],
      "type": "VEC2"
    },
    {
      "bufferView": 0,
      "componentType": 5125,
      "count": 304764,
      "type": "SCALAR"
    },
    {
      "bufferView": 2,
      "byteOffset": 1572768,
      "componentType": 5126,
      "count": 65532,
      "max": [
        14.270332336425781,
        9.790144920349121,
        14.199926376342773
      ],
      "min": [
        0.01470184326171875,
        0.045433998107910156,
        0.0002809762954711914
      ],
      "type": "VEC3"
    },
    {
      "bufferView": 2,
      "byteOffset": 2359152,
      "componentType": 5126,
      "count": 65532,
      "max": [
        0.9999546408653259,
        0.9999961853027344,
        0.9999995231628418
      ],
      "min": [
        -0.9999845027923584,
        -0.9999954700469971,
        -0.9998168349266052
      ],
      "type": "VEC3"
    },
    {
      "bufferView": 1,
      "byteOffset": 524256,
      "componentType": 5126,
      "count": 65532,
      "max": [
        0.9747800230979919,
        0.9945300221443176
      ],
      "min": [
        0.009619999676942825,
        0.0011899999808520079
      ],
      "type": "VEC2"
    },
    {
      "bufferView": 0,
      "byteOffset": 1219056,
      "componentType": 5125,
      "count": 302589,
      "type": "SCALAR"
    },
    {
      "bufferView": 2,
      "byteOffset": 3145536,
      "componentType": 5126,
      "count": 65532,
      "max": [
        14.40884017944336,
        9.636905670166016,
        13.943170547485352
      ],
      "min": [
        0.01879405975341797,
        0.010983943939208984,
        0.00011998414993286133
      ],
      "type": "VEC3"
    },
    {
      "bufferView": 2,
      "byteOffset": 3931920,
      "componentType": 5126,
      "count": 65532,
      "max": [
        0.9999858736991882,
        0.9999858736991882,
        0.9999988675117493
      ],
      "min": [
        -0.9999876022338867,
        -0.9999971985816956,
        -0.9998661279678345
      ],
      "type": "VEC3"
    },
    {
      "bufferView": 1,
      "byteOffset": 1048512,
      "componentType": 5126,
      "count": 65532,
      "max": [
        0.9922800064086914,
        0.9963240027427673
      ],
      "min": [
        0.012002999894320965,
        0.0021800000686198473
      ],
      "type": "VEC2"
    },
    {
      "bufferView": 0,
      "byteOffset": 2429412,
      "componentType": 5125,
      "count": 302955,
      "type": "SCALAR"
    },
    {
      "bufferView": 2,
      "byteOffset": 4718304,
      "componentType": 5126,
      "count": 65532,
      "max": [
        14.418142318725586,
        9.669145584106445,
        14.282389640808105
      ],
      "min": [
        0.033066749572753906,
        0.040947914123535156,
        5.799531936645508e-05
      ],
      "type": "VEC3"
    },
    {
      "bufferView": 2,
      "byteOffset": 5504688,
      "componentType": 5126,
      "count": 65532,
      "max": [
        0.9999784827232361,
        0.9999986290931702,
        0.9999993443489075
      ],
      "min": [
        -0.9999836683273315,
        -0.9999882578849792,
        -0.9998869299888611
      ],
      "type": "VEC3"
    },
    {
      "bufferView": 1,
      "byteOffset": 1572768,
      "componentType": 5126,
      "count": 65532,
      "max": [
        0.9742860198020935,
        0.981440007686615
      ],
      "min": [
        0.0008699999889358878,
        0.0011599999852478504
      ],
      "type": "VEC2"
    },
    {
      "bufferView": 0,
      "byteOffset": 3641232,
      "componentType": 5125,
      "count": 302841,
      "type": "SCALAR"
    },
    {
      "bufferView": 2,
      "byteOffset": 6291072,
      "componentType": 5126,
      "count": 65532,
      "max": [
        14.414135932922363,
        9.709463119506836,
        14.10096549987793
      ],
      "min": [
        0.0,
        0.03690195083618164,
        3.999471664428711e-05
      ],
      "type": "VEC3"
    },
    {
      "bufferView": 2,
      "byteOffset": 7077456,
      "componentType": 5126,
      "count": 65532,
      "max": [
        0.9999982118606567,
        0.9999939203262329,
        0.9999992847442627
      ],
      "min": [
        -1.0,
        -0.9999999403953552,
        -0.9999827146530151
      ],
      "type": "VEC3"
    },
    {
      "bufferView": 1,
      "byteOffset": 2097024,
      "componentType": 5126,
      "count": 65532,
      "max": [
        0.9954900145530701,
        0.9943550229072571
      ],
      "min": [
        0.008510000072419643,
        0.0007999999797903001
      ],
      "type": "VEC2"
    },
    {
      "bufferView": 0,
      "byteOffset": 4852596,
      "componentType": 5125,
      "count": 302589,
      "type": "SCALAR"
    },
    {
      "bufferView": 2,
      "byteOffset": 7863840,
      "componentType": 5126,
      "count": 65532,
      "max": [
        14.413101196289063,
        9.837903022766113,
        14.54888916015625
      ],
      "min": [
        0.037941932678222656,
        0.029787063598632813,
        1.4960765838623047e-05
      ],
      "type": "VEC3"
    },
    {
      "bufferView": 2,
      "byteOffset": 8650224,
      "componentType": 5126,
      "count": 65532,
      "max": [
        0.999998927116394,
        0.9999858736991882,
        1.0
      ],
      "min": [
        -0.9999824166297913,
        -0.999999463558197,
        -0.9999738931655884
      ],
      "type": "VEC3"
    },
    {
      "bufferView": 1,
      "byteOffset": 2621280,
      "componentType": 5126,
      "count": 65532,
      "max": [
        0.994629979133606,
        0.9958800077438354
      ],
      "min": [
        0.00215999991632998,
        0.0010499999625608325
      ],
      "type": "VEC2"
    },
    {
      "bufferView": 0,
      "byteOffset": 6062952,
      "componentType": 5125,
      "count": 296589,
      "type": "SCALAR"
    },
    {
      "bufferView": 2,
      "byteOffset": 9436608,
      "componentType": 5126,
      "count": 65532,
      "max": [
        14.41710090637207,
        9.71603012084961,
        14.424500465393066
      ],
      "min": [
        0.0,
        0.02899789810180664,
        3.993511199951172e-06
      ],
      "type": "VEC3"
    },
    {
      "bufferView": 2,
      "byteOffset": 10222992,
      "componentType": 5126,
      "count": 65532,
      "max": [
        0.9999929666519165,
        0.9999723434448242,
        0.9999991655349731
      ],
      "min": [
        -0.9999696612358093,
        -0.9999967217445374,
        -0.9999613761901855
      ],
      "type": "VEC3"
    },
    {
      "bufferView": 1,
      "byteOffset": 3145536,
      "componentType": 5126,
      "count": 65532,
      "max": [
        0.9956300258636475,
        0.9965699911117554
      ],
      "min": [
        0.001816999982111156,
        0.0023300000466406345
      ],
      "type": "VEC2"
    },
    {
      "bufferView": 0,
      "byteOffset": 7249308,
      "componentType": 5125,
      "count": 286761,
      "type": "SCALAR"
    },
    {
      "bufferView": 2,
      "byteOffset": 11009376,
      "componentType": 5126,
      "count": 65532,
      "max": [
        14.415743827819824,
        9.759628295898438,
        14.509618759155273
      ],
      "min": [
        0.024938583374023438,
        0.0,
        0.0
      ],
      "type": "VEC3"
    },
    {
      "bufferView": 2,
      "byteOffset": 11795760,
      "componentType": 5126,
      "count": 65532,
      "max": [
        0.999998927116394,
        0.9999961853027344,
        0.9999983310699463
      ],
      "min": [
        -0.9999938607215881,
        -0.9999967217445374,
        -0.9999322295188904
      ],
      "type": "VEC3"
    },
    {
      "bufferView": 1,
      "byteOffset": 3669792,
      "componentType": 5126,
      "count": 65532,
      "max": [
        0.9958900213241577,
        1.9999799728393555
      ],
      "min": [
        0.0016299999551847577,
        -2.8000000384054147e-05
      ],
      "type": "VEC2"
    },
    {
      "bufferView": 0,
      "byteOffset": 8396352,
      "componentType": 5125,
      "count": 257874,
      "type": "SCALAR"
    },
    {
      "bufferView": 2,
      "byteOffset": 12582144,
      "componentType": 5126,
      "count": 65532,
      "max": [
        14.412809371948242,
        9.760250091552734,
        14.536558151245117
      ],
      "min": [
        0.0010199546813964844,
        0.015990734100341797,
        2.4974346160888672e-05
      ],
      "type": "VEC3"
    },
    {
      "bufferView": 2,
      "byteOffset": 13368528,
      "componentType": 5126,
      "count": 65532,
      "max": [
        0.9999803900718689,
        0.9999819993972778,
        0.9999998807907104
      ],
      "min": [
        -0.9999939203262329,
        -0.9999954700469971,
        -0.9999827146530151
      ],
      "type": "VEC3"
    },
    {
      "bufferView": 1,
      "byteOffset": 4194048,
      "componentType": 5126,
      "count": 65532,
      "max": [
        0.9946900010108948,
        1.500059962272644
      ],
      "min": [
        0.00022000000171829015,
        0.00014699999883305281
      ],
      "type": "VEC2"
    },
    {
      "bufferView": 0,
      "byteOffset": 9427848,
      "componentType": 5125,
      "count": 188592,
      "type": "SCALAR"
    },
    {
      "bufferView": 2,
      "byteOffset": 14154912,
      "componentType": 5126,
      "count": 36106,
      "max": [
        14.409136772155762,
        9.801521301269531,
        14.454459190368652
      ],
      "min": [
        0.014208793640136719,
        0.03903675079345703,
        5.59687614440918e-05
      ],
      "type": "VEC3"
    },
    {
      "bufferView": 2,
      "byteOffset": 14588184,
      "componentType": 5126,
      "count": 36106,
      "max": [
        0.9999685883522034,
        1.0,
        0.9999975562095642
      ],
      "min": [
        -0.9999831914901733,
        -1.0,
        -0.9998168349266052
      ],
      "type": "VEC3"
    },
    {
      "bufferView": 1,
      "byteOffset": 4718304,
      "componentType": 5126,
      "count": 36106,
      "max": [
        0.9950799942016602,
        1.9998699426651
      ],
      "min": [
        0.0012000000569969416,
        0.0002300000051036477
      ],
      "type": "VEC2"
    },
    {
      "bufferView": 0,
      "byteOffset": 10182216,
      "componentType": 5125,
      "count": 58191,
      "type": "SCALAR"
    }
  ],
  "asset": {
    "extras": {
      "author": "Benjamin Bardou (https://sketchfab.com/meryon)",
      "license": "CC-BY-4.0 (http://creativecommons.org/licenses/by/4.0/)",
      "source": "https://sketchfab.com/3d-models/neptune-louvre-museum-e091d1ff1d2b44fd88d113fccb5623aa",
      "title": "Neptune - Louvre Museum"
    },
    "generator": "Sketchfab-12.67.0",
    "version": "2.0"
  },
  "bufferViews": [
    {
      "buffer": 0,
      "byteLength": 10414980,
      "name": "floatBufferViews",
      "target": 34963
    },
    {
      "buffer": 0,
      "byteLength": 5007152,
      "byteOffset": 10414980,
      "byteStride": 8,
      "name": "floatBufferViews",
      "target": 34962
    },
    {
      "buffer": 0,
      "byteLength": 15021456,
      "byteOffset": 15422132,
      "byteStride": 12,
      "name": "floatBufferViews",
      "target": 34962
    }
  ],
  "buffers": [
    {
      "byteLength": 30443588,
      "uri": "scene.bin"
    }
  ],
  "images": [
    {
      "uri": "textures/material_0_emissive.jpeg"
    }
  ],
  "materials": [
    {
      "doubleSided": true,
      "emissiveFactor": [
        1.0,
        1.0,
        1.0
      ],
      "emissiveTexture": {
        "index": 0
      },
      "name": "material_0",
      "pbrMetallicRoughness": {
        "baseColorFactor": [
          0.0,
          0.0,
          0.0,
          1.0
        ],
        "metallicFactor": 0.0
      }
    }
  ],
  "meshes": [
    {
      "name": "Object_0",
      "primitives": [
        {
          "attributes": {
            "NORMAL": 1,
            "POSITION": 0,
            "TEXCOORD_0": 2
          },
          "indices": 3,
          "material": 0,
          "mode": 4
        }
      ]
    },
    {
      "name": "Object_1",
      "primitives": [
        {
          "attributes": {
            "NORMAL": 5,
            "POSITION": 4,
            "TEXCOORD_0": 6
          },
          "indices": 7,
          "material": 0,
          "mode": 4
        }
      ]
    },
    {
      "name": "Object_2",
      "primitives": [
        {
          "attributes": {
            "NORMAL": 9,
            "POSITION": 8,
            "TEXCOORD_0": 10
          },
          "indices": 11,
          "material": 0,
          "mode": 4
        }
      ]
    },
    {
      "name": "Object_3",
      "primitives": [
        {
          "attributes": {
            "NORMAL": 13,
            "POSITION": 12,
            "TEXCOORD_0": 14
          },
          "indices": 15,
          "material": 0,
          "mode": 4
        }
      ]
    },
    {
      "name": "Object_4",
      "primitives": [
        {
          "attributes": {
            "NORMAL": 17,
            "POSITION": 16,
            "TEXCOORD_0": 18
          },
          "indices": 19,
          "material": 0,
          "mode": 4
        }
      ]
    },
    {
      "name": "Object_5",
      "primitives": [
        {
          "attributes": {
            "NORMAL": 21,
            "POSITION": 20,
            "TEXCOORD_0": 22
          },
          "indices": 23,
          "material": 0,
          "mode": 4
        }
      ]
    },
    {
      "name": "Object_6",
      "primitives": [
        {
          "attributes": {
            "NORMAL": 25,
            "POSITION": 24,
            "TEXCOORD_0": 26
          },
          "indices": 27,
          "material": 0,
          "mode": 4
        }
      ]
    },
    {
      "name": "Object_7",
      "primitives": [
        {
          "attributes": {
            "NORMAL": 29,
            "POSITION": 28,
            "TEXCOORD_0": 30
          },
          "indices": 31,
          "material": 0,
          "mode": 4
        }
      ]
    },
    {
      "name": "Object_8",
      "primitives": [
        {
          "attributes": {
            "NORMAL": 33,
            "POSITION": 32,
            "TEXCOORD_0": 34
          },
          "indices": 35,
          "material": 0,
          "mode": 4
        }
      ]
    },
    {
      "name": "Object_9",
      "primitives": [
        {
          "attributes": {
            "NORMAL": 37,
            "POSITION": 36,
            "TEXCOORD_0": 38
          },
          "indices": 39,
          "material": 0,
          "mode": 4
        }
      ]
    }
  ],
  "nodes": [
    {
      "children": [
        1
      ],
      "matrix": [
        1.0,
        0.0,
        0.0,
        0.0,
        0.0,
        2.220446049250313e-16,
        -1.0,
        0.0,
        0.0,
        1.0,
        2.220446049250313e-16,
        0.0,
        0.0,
        0.0,
        0.0,
        1.0
      ],
      "name": "Sketchfab_model"
    },
    {
      "children": [
        2
      ],
      "matrix": [
        1.0,
        0.0,
        0.0,
        0.0,
        0.0,
        1.0,
        0.0,
        0.0,
        0.0,
        0.0,
        1.0,
        0.0,
        -7.022164821624756,
        -4.229931831359863,
        0.8656030297279358,
        1.0
      ],
      "name": "NEPTUNE.obj.cleaner.gles"
    },
    {
      "children": [
        3,
        4,
        5,
        6,
        7,
        8,
        9,
        10,
        11,
        12
      ],
      "name": "Object_2"
    },
    {
      "mesh": 0,
      "name": "Object_3"
    },
    {
      "mesh": 1,
      "name": "Object_4"
    },
    {
      "mesh": 2,
      "name": "Object_5"
    },
    {
      "mesh": 3,
      "name": "Object_6"
    },
    {
      "mesh": 4,
      "name": "Object_7"
    },
    {
      "mesh": 5,
      "name": "Object_8"
    },
    {
      "mesh": 6,
      "name": "Object_9"
    },
    {
      "mesh": 7,
      "name": "Object_10"
    },
    {
      "mesh": 8,
      "name": "Object_11"
    },
    {
      "mesh": 9,
      "name": "Object_12"
    }
  ],
  "samplers": [
    {
      "magFilter": 9729,
      "minFilter": 9987,
      "wrapS": 10497,
      "wrapT": 10497
    }
  ],
  "scene": 0,
  "scenes": [
    {
      "name": "Sketchfab_Scene",
      "nodes": [
        0
      ]
    }
  ],
  "textures": [
    {
      "sampler": 0,
      "source": 0
    }
  ]
}
