{
  "accessors": [
    {
      "bufferView": 2,
      "componentType": 5126,
      "count": 65532,
      "max": [
        131.10781860351563,
        148.0067138671875,
        349.2249755859375
      ],
      "min": [
        2.873626708984375,
        2.1664161682128906,
        0.0
      ],
      "type": "VEC3"
    },
    {
      "bufferView": 2,
      "byteOffset": 786384,
      "componentType": 5126,
      "count": 65532,
      "max": [
        0.9999995231628418,
        0.9999994039535522,
        0.9999945759773254
      ],
      "min": [
        -0.9999964833259583,
        -0.9999851584434509,
        -0.9998471140861511
      ],
      "type": "VEC3"
    },
    {
      "bufferView": 1,
      "componentType": 5126,
      "count": 65532,
      "max": [
        0.977446973323822,
        0.9976940155029297
      ],
      "min": [
        0.01116000022739172,
        0.004790999926626682
      ],
      "type": "VEC2"
    },
    {
      "bufferView": 0,
      "componentType": 5125,
      "count": 293370,
      "type": "SCALAR"
    },
    {
      "bufferView": 2,
      "byteOffset": 1572768,
      "componentType": 5126,
      "count": 65532,
      "max": [
        131.96420288085938,
        143.4730224609375,
        351.36517333984375
      ],
      "min": [
        2.8459091186523438,
        0.49114227294921875,
        0.018075942993164063
      ],
      "type": "VEC3"
    },
    {
      "bufferView": 2,
      "byteOffset": 2359152,
      "componentType": 5126,
      "count": 65532,
      "max": [
        1.0,
        0.9999986290931702,
        0.9999834895133972
      ],
      "min": [
        -0.9999967813491821,
        -0.9999978542327881,
        -0.9998108148574829
      ],
      "type": "VEC3"
    },
    {
      "bufferView": 1,
      "byteOffset": 524256,
      "componentType": 5126,
      "count": 65532,
      "max": [
        0.9898200035095215,
        0.9947519898414612
      ],
      "min": [
        0.006020000204443932,
        0.004029999952763319
      ],
      "type": "VEC2"
    },
    {
      "bufferView": 0,
      "byteOffset": 1173480,
      "componentType": 5125,
      "count": 292668,
      "type": "SCALAR"
    },
    {
      "bufferView": 2,
      "byteOffset": 3145536,
      "componentType": 5126,
      "count": 65532,
      "max": [
        132.147216796875,
        147.5273895263672,
        350.9917907714844
      ],
      "min": [
        0.0,
        4.407173156738281,
        0.05280113220214844
      ],
      "type": "VEC3"
    },
    {
      "bufferView": 2,
      "byteOffset": 3931920,
      "componentType": 5126,
      "count": 65532,
      "max": [
        0.9999997615814209,
        0.9999998211860657,
        0.9999937415122986
      ],
      "min": [
        -0.9999914169311523,
        -0.9999997615814209,
        -0.9999129176139832
      ],
      "type": "VEC3"
    },
    {
      "bufferView": 1,
      "byteOffset": 1048512,
      "componentType": 5126,
      "count": 65532,
      "max": [
        0.9957799911499023,
        0.9977859854698181
      ],
      "min": [
        0.004209999926388264,
        0.0038499999791383743
      ],
      "type": "VEC2"
    },
    {
      "bufferView": 0,
      "byteOffset": 2344152,
      "componentType": 5125,
      "count": 292515,
      "type": "SCALAR"
    },
    {
      "bufferView": 2,
      "byteOffset": 4718304,
      "componentType": 5126,
      "count": 65532,
      "max": [
        132.0105743408203,
        147.5273895263672,
        351.26019287109375
      ],
      "min": [
        2.7473602294921875,
        0.0,
        0.01097869873046875
      ],
      "type": "VEC3"
    },
    {
      "bufferView": 2,
      "byteOffset": 5504688,
      "componentType": 5126,
      "count": 65532,
      "max": [
        0.9999992847442627,
        0.9999996423721313,
        0.999999463558197
      ],
      "min": [
        -0.9999989867210388,
        -1.0,
        -0.999980628490448
      ],
      "type": "VEC3"
    },
    {
      "bufferView": 1,
      "byteOffset": 1572768,
      "componentType": 5126,
      "count": 65532,
      "max": [
        0.9958490133285522,
        0.9983919858932495
      ],
      "min": [
        0.0032399999909102917,
        0.003379999892786145
      ],
      "type": "VEC2"
    },
    {
      "bufferView": 0,
      "byteOffset": 3514212,
      "componentType": 5125,
      "count": 283353,
      "type": "SCALAR"
    },
    {
      "bufferView": 2,
      "byteOffset": 6291072,
      "componentType": 5126,
      "count": 65532,
      "max": [
        132.07191467285156,
        148.0067138671875,
        351.2880554199219
      ],
      "min": [
        0.31926727294921875,
        0.08927536010742188,
        0.015356063842773438
      ],
      "type": "VEC3"
    },
    {
      "bufferView": 2,
      "byteOffset": 7077456,
      "componentType": 5126,
      "count": 65532,
      "max": [
        0.9999971985816956,
        0.9999992251396179,
        0.9999997615814209
      ],
      "min": [
        -0.9999992847442627,
        -0.9999995827674866,
        -0.9998317956924438
      ],
      "type": "VEC3"
    },
    {
      "bufferView": 1,
      "byteOffset": 2097024,
      "componentType": 5126,
      "count": 65532,
      "max": [
        0.9976339936256409,
        0.999098002910614
      ],
      "min": [
        0.0036200000904500484,
        0.003780999919399619
      ],
      "type": "VEC2"
    },
    {
      "bufferView": 0,
      "byteOffset": 4647624,
      "componentType": 5125,
      "count": 244686,
      "type": "SCALAR"
    },
    {
      "bufferView": 2,
      "byteOffset": 7863840,
      "componentType": 5126,
      "count": 61893,
      "max": [
        132.12603759765625,
        148.00326538085938,
        350.9117736816406
      ],
      "min": [
        0.30609130859375,
        0.0,
        0.01136016845703125
      ],
      "type": "VEC3"
    },
    {
      "bufferView": 2,
      "byteOffset": 8606556,
      "componentType": 5126,
      "count": 61893,
      "max": [
        0.9999999403953552,
        0.9999973773956299,
        0.9999997615814209
      ],
      "min": [
        -0.9999989867210388,
        -0.9999986886978149,
        -0.999980628490448
      ],
      "type": "VEC3"
    },
    {
      "bufferView": 1,
      "byteOffset": 2621280,
      "componentType": 5126,
      "count": 61893,
      "max": [
        0.9970800280570984,
        1.9999300241470337
      ],
      "min": [
        0.003659999929368496,
        0.003794000018388033
      ],
      "type": "VEC2"
    },
    {
      "bufferView": 0,
      "byteOffset": 5626368,
      "componentType": 5125,
      "count": 128790,
      "type": "SCALAR"
    }
  ],
  "asset": {
    "extras": {
      "author": "Benjamin Bardou (https://sketchfab.com/meryon)",
      "license": "CC-BY-4.0 (http://creativecommons.org/licenses/by/4.0/)",
      "source": "https://sketchfab.com/3d-models/philopoemen-louvre-museum-f21d998c67774d10855def0003854c08",
      "title": "Philopoemen - Louvre Museum"
    },
    "generator": "Sketchfab-12.67.0",
    "version": "2.0"
  },
  "bufferViews": [
    {
      "buffer": 0,
      "byteLength": 6141528,
      "name": "floatBufferViews",
      "target": 34963
    },
    {
      "buffer": 0,
      "byteLength": 3116424,
      "byteOffset": 6141528,
      "byteStride": 8,
      "name": "floatBufferViews",
      "target": 34962
    },
    {
      "buffer": 0,
      "byteLength": 9349272,
      "byteOffset": 9257952,
      "byteStride": 12,
      "name": "floatBufferViews",
      "target": 34962
    }
  ],
  "buffers": [
    {
      "byteLength": 18607224,
      "uri": "scene.bin"
    }
  ],
  "images": [
    {
      "uri": "textures/material_0_emissive.jpeg"
    }
  ],
  "materials": [
    {
      "doubleSided": true,
      "emissiveFactor": [
        1.0,
        1.0,
        1.0
      ],
      "emissiveTexture": {
        "index": 0
      },
      "name": "material_0",
      "pbrMetallicRoughness": {
        "baseColorFactor": [
          0.0,
          0.0,
          0.0,
          1.0
        ],
        "metallicFactor": 0.0
      }
    }
  ],
  "meshes": [
    {
      "name": "Object_0",
      "primitives": [
        {
          "attributes": {
            "NORMAL": 1,
            "POSITION": 0,
            "TEXCOORD_0": 2
          },
          "indices": 3,
          "material": 0,
          "mode": 4
        }
      ]
    },
    {
      "name": "Object_1",
      "primitives": [
        {
          "attributes": {
            "NORMAL": 5,
            "POSITION": 4,
            "TEXCOORD_0": 6
          },
          "indices": 7,
          "material": 0,
          "mode": 4
        }
      ]
    },
    {
      "name": "Object_2",
      "primitives": [
        {
          "attributes": {
            "NORMAL": 9,
            "POSITION": 8,
            "TEXCOORD_0": 10
          },
          "indices": 11,
          "material": 0,
          "mode": 4
        }
      ]
    },
    {
      "name": "Object_3",
      "primitives": [
        {
          "attributes": {
            "NORMAL": 13,
            "POSITION": 12,
            "TEXCOORD_0": 14
          },
          "indices": 15,
          "material": 0,
          "mode": 4
        }
      ]
    },
    {
      "name": "Object_4",
      "primitives": [
        {
          "attributes": {
            "NORMAL": 17,
            "POSITION": 16,
            "TEXCOORD_0": 18
          },
          "indices": 19,
          "material": 0,
          "mode": 4
        }
      ]
    },
    {
      "name": "Object_5",
      "primitives": [
        {
          "attributes": {
            "NORMAL": 21,
            "POSITION": 20,
            "TEXCOORD_0": 22
          },
          "indices": 23,
          "material": 0,
          "mode": 4
        }
      ]
    }
  ],
  "nodes": [
    {
      "children": [
        1
      ],
      "matrix": [
        1.0,
        0.0,
        0.0,
        0.0,
        0.0,
        2.220446049250313e-16,
        -1.0,
        0.0,
        0.0,
        1.0,
        2.220446049250313e-16,
        0.0,
        0.0,
        0.0,
        0.0,
        1.0
      ],
      "name": "Sketchfab_model"
    },
    {
      "children": [
        2
      ],
      "matrix": [
        1.0,
        0.0,
        0.0,
        0.0,
        0.0,
        1.0,
        0.0,
        0.0,
        0.0,
        0.0,
        1.0,
        0.0,
        -58.97113800048828,
        -62.73654556274414,
        -24.2042293548584,
        1.0
      ],
      "name": "PHILOPOEMEN.obj.cleaner.gles"
    },
    {
      "children": [
        3,
        4,
        5,
        6,
        7,
        8
      ],
      "name": "Object_2"
    },
    {
      "mesh": 0,
      "name": "Object_3"
    },
    {
      "mesh": 1,
      "name": "Object_4"
    },
    {
      "mesh": 2,
      "name": "Object_5"
    },
    {
      "mesh": 3,
      "name": "Object_6"
    },
    {
      "mesh": 4,
      "name": "Object_7"
    },
    {
      "mesh": 5,
      "name": "Object_8"
    }
  ],
  "samplers": [
    {
      "magFilter": 9729,
      "minFilter": 9987,
      "wrapS": 10497,
      "wrapT": 10497
    }
  ],
  "scene": 0,
  "scenes": [
    {
      "name": "Sketchfab_Scene",
      "nodes": [
        0
      ]
    }
  ],
  "textures": [
    {
      "sampler": 0,
      "source": 0
    }
  ]
}
